/* XPM */
static char *_17957292a98430cafe67f687c35e018B7neIa98a202Zv6Q[] = {
/* columns rows colors chars-per-pixel */
"64 64 111 2 ",
"   c #EBEDD6",
".  c #E6E8D2",
"X  c #CDCEBD",
"o  c #CACBBA",
"O  c #CFD0BF",
"+  c #E8EAD3",
"@  c #E3E5CF",
"#  c #3A3342",
"$  c #261F32",
"%  c #443E4B",
"&  c #D7D8C6",
"*  c #BABAAD",
"=  c #100820",
"-  c #312A3C",
";  c #D5D6C4",
":  c #B4B4A8",
">  c #B1B1A6",
",  c #231B2F",
"<  c #150D24",
"1  c #4A4450",
"2  c #B7B7AB",
"3  c #363040",
"4  c #120A22",
"5  c #2E2739",
"6  c #C5C5B6",
"7  c #C8C9B9",
"8  c #2C2537",
"9  c #130B23",
"0  c #3F3947",
"q  c #292234",
"w  c #A4A39B",
"e  c #9B9A94",
"r  c #20192E",
"t  c #241D30",
"y  c #4D4753",
"u  c #D8DAC7",
"i  c #342E3E",
"p  c #453F4C",
"a  c #332C3D",
"s  c #ACABA2",
"d  c #413B49",
"f  c #CACBBC",
"g  c #CCCFC1",
"h  c #D0D2C3",
"j  c #E4E6D0",
"k  c #D4D5C3",
"l  c #D0D1C0",
"z  c #BCBCB0",
"x  c #D2D3C1",
"c  c #E9EBD4",
"v  c #E0E2CE",
"b  c #BCBCAF",
"n  c #E5E7D2",
"m  c #373345",
"M  c #919CA1",
"N  c #B3B9B4",
"B  c #CDCEBE",
"V  c #4F4A54",
"C  c #BFBFB1",
"Z  c #524D57",
"A  c #120B22",
"S  c #1E192F",
"D  c #231D31",
"F  c #3E3847",
"G  c #282033",
"H  c #5D5960",
"J  c #D6D7C4",
"K  c #D2D3C2",
"L  c #B5B4A9",
"P  c #CACBBB",
"I  c #413C49",
"U  c #A7A69E",
"Y  c #170F26",
"T  c #B6B6AA",
"R  c #8E8C89",
"E  c #9E9C96",
"W  c #8B8986",
"Q  c #C4C5B6",
"!  c #181027",
"~  c #5A555E",
"^  c #C9CABA",
"/  c #BBBBAE",
"(  c #B9B9AD",
")  c #C7C7B8",
"_  c #A1A098",
"`  c #160E24",
"'  c #C8C8B9",
"]  c #C2C2B4",
"[  c #AEAEA3",
"{  c #2B2436",
"}  c #5C575F",
"|  c #292235",
" . c #403A48",
".. c #170F25",
"X. c #DDDFCB",
"o. c #A9A89F",
"O. c #251E32",
"+. c #3C3645",
"@. c #CBCCBC",
"#. c #BDBDB0",
"$. c #DFE1CD",
"%. c #C6C7B8",
"&. c #544F59",
"*. c #CCCCBC",
"=. c #3F3946",
"-. c #423C49",
";. c #6B676C",
":. c #312A3B",
">. c #332D3D",
",. c #C1C2B4",
"<. c #46414D",
/* pixels */
"  . X o o o o O + . X o o o o o o o o o o o o o o o o o o o o o o o o o o o o o o o O @ X o o o o o o o o o o o o o o o o o O + ",
"  X # $ $ $ $ % & X # $ $ $ $ $ $ $ $ $ $ $ $ $ $ $ $ $ $ $ $ $ $ $ $ $ $ $ $ $ $ $ % * # $ $ $ $ $ $ $ $ $ $ $ $ $ $ $ $ $ % & ",
"  o $ = = = = - ; o $ = = = = = = = = = = = = = = = = = = = = = = = = = = = = = = = - : $ = = = = = = = = = = = = = = = = = - ; ",
". > , = = = = - ; o $ = = = = = = = = = = = = = = = = = = = = = = = = = = = = = = < 1 2 $ = = = = = = = = = = = = = = = = = - ; ",
"X 3 4 = = = = - ; o $ = = = = = = = = = = = = = = = = = = = = = = = = = = = = = = 5 6 7 $ = = = = = = = = = = = = = = = = = - ; ",
"o $ = = = = = - ; o $ = = = = = = = = = = = = = = = = = = = = = = = = = = = = = = - ; o $ = = = = = = = = = = = = = = = = = - ; ",
"o $ = = = = = - ; o $ = = = = = = = = = = = = = = = = = = < 5 8 9 = = = = = = = = - ; O 0 9 = = = = = = = = = = = = = = = = - ; ",
"o $ = = = = = - ; o $ = = = = = = = = = = = = = = = = = = q w e r = = = = = = = = - ; + * t = = = = = = = = = = = = = < q 9 - ; ",
"O % - - - - - y u O % - - - - - - - - - - - - - - - - - - i p % a - - - - - - - - y u   O % - - - - - - - - - - - - - 1 s d y u ",
"f g h ; ; ; ; u j O k ; l z x ; ; ; ; ; ; ; ; ; ; ; ; ; ; ; ; ; ; ; ; ; ; ; ; ; ; u c   + & ; ; ; ; ; ; ; ; ; ; ; ; ; u v * b n ",
"m M N B + . X o > V C + X Z * o o o o o o o o o o o o O + . X o o o o o o o o o o o o o o o o o o o o o o o O + . X o o > 3 0 * ",
"A S D F * > 3 $ G a H J > $ t $ $ $ $ $ $ $ $ $ $ $ $ % K L 3 $ $ $ $ $ $ $ $ $ $ $ $ $ $ $ $ $ $ $ $ $ $ $ 0 C P # $ $ , 4 9 t ",
"= = = 9 t , 4 < I U b 7 3 Y q 9 = = = = = = < q 9 = = - 2 3 4 = = = = = = = = = = = = = = = = = = = = = = = 9 d T $ = = = = = = ",
"= = = = = = = q R i 0 E , q W r = = = = = = q W r = < 1 2 $ = = = = = = = = = = = = = = = = = = = = = = = = = - : $ = = = = = = ",
"= = = = = = = 9 r 4 9 r 4 9 r 4 = = = = = = 9 r 4 = q s Q $ = = = = = = = = = = = = = = = = = = = = = = = = < 1 2 $ = = = = = = ",
"= = = = = = = = = = = = = = = = = = = = = = = = = = ! ~ * $ = = = = = = = = = = = = = = = = = = = = = = = = 5 6 7 $ = = = = = = ",
"< 5 - - - - - 8 9 < q 9 = = = = = = = = = = = = = = q s ^ % 8 9 = = = = = < 5 - - 8 9 = = = = = = = = = = = - ; o $ = = = = = = ",
"1 6 ; ; ; ; ; b d 1 s d - - - - - - - - - - - - - - i H & & b d - - - - - 1 6 ; ; b d - - - - - - - - - - - y u O % - - - - - - ",
"u c . X o O + + K / Q T ( x ; ; ; ; ; l z x ; ; ; ; ; u c   + & ; ; ; ; l / 7 o o ) T : : : : : : : : : : : b v P T : ( x ; ; ; ",
"o o > 3 $ 0 * o > 3 $ $ 0 * o o o o o > V * o o o o O + . X o o o o o o > 3 $ $ $ $ $ $ $ $ $ $ $ $ $ $ $ $ 0 _ 3 $ $ 0 * O +   ",
"$ $ , 4 = 9 t $ , 4 = = 9 t $ $ $ $ $ , ` t $ $ $ $ % & X # $ $ $ $ $ $ , 4 = = = = = = = = = = = = = = = = 9 r 4 = = 9 t % K X ",
"= = = = = = = = = = = = = = = = = = = = = = = = = = - ; o $ = = = = = = = = = = = = = = = = = = = = = = = = = = = = = = = - 2 # ",
"= = = = = = = = = < q 9 = = = = = = = = = = = = = = - ; o $ = = = = = = = = = = = = = = = = = = = = = = = = = = = = = = = - : $ ",
"= = = = = = = = = q W r = = = = = = = = < q ! 5 - - y u O % - 8 9 = = = < q ! 5 - - - - - - - 8 9 = = = = = = = = = = = < 1 2 $ ",
"- - - - - - - - - i d a - - - - - - - - 1 s ~ 6 ; ; u c + & ; b d - - - 1 s ~ 6 ; ; ; ; ; ; ; b d - - - - - - - - - - - 1 ' X % ",
"; ; ; ; ; ; ; ; ; ; ; ; ; ; ; ; ; ; ; ; u n J l +             + & ; ; ; u v ] n               + K 2 ( x ; ; l z x ; ; ; u c + & ",
"o o o o o o o O +         . K @ K + . X O + X Z * o o o o o o o o O @ X o > V * o o o o o o o o > 3 0 * o o > V * o o o o o o o ",
"$ $ $ $ $ $ $ 0 C + . X o > V _ V * > 3 0 * [ $ t $ $ $ $ $ $ $ { } ] Z | , ` t $ $ $ $ $ $ $ $ , 4 9 t $ $ , ` t $ $ $ $ $ $ $ ",
"= = = = = = = 9 d & X # $ , ` r ` q  .5 ..t , 4 < q 9 = = = = = q s X._ r = = = = = = = = = = = = = = = = = = = = = = = = = = = ",
"= = = = = = = = - ; o $ = = = = = q o.: t = = = q W O.q 9 = = = ! ~ ] V ` = = = = = = = = = = = = = = = = = = = = = = = = = = = ",
"= = = = = = = = - ; o $ = = = = = 9 +.E , = = = 9 r { W r = = = 5 6 n * t = = = = = = = = = = = = = = = = = = = = = = = = = = = ",
"= = = = = = = = - ; o $ = = = = = = 9 r 4 = = = = = 9 r 4 = = = 8 b + o $ = = = = = = = = = = = = = = = = = = = = = = = = = = = ",
"= = = = = = = = - l > , = = = = = = = = = = = = = = = = = = = = 9 d & o $ = = = = = = = = = = = = = = = = = = = = = = = = = = = ",
"= = = = = = = = - z V ` = = = = = = = = = = = = = = = < q 9 < q ! 1 u O % 8 ! 5 - - - - - - - - - - - - - - - - 8 9 = = = = = = ",
"< 5 - 8 9 < 5 8 i x C d - - - - - - - - - - - - - - - 1 s d 1 s ~ ' c + & b ~ 6 ; ; ; ; ; ; ; ; ; ; ; ; ; ; ; ; b d - - - - - - ",
"1 6 ; b d 1 6 b H u + & ; ; ; ; ; ; ; l z x ; ; ; ; ; u v * 2 ^ K @.O +   @ #.7 o o o o o o o o o o O +   . X O $.C x ; ; ; ; ; ",
"2 ' ^ %.T 2 7 ) * 7 o o o o o o o o o > V * o o o O +   X # $ 0 _ 3 0 * o > 3 $ $ $ $ $ $ $ $ $ $ $ 0 * o > 3 0 _ &.& . X o o o ",
"$ $ $ $ $ $ $ $ $ $ $ $ $ $ $ $ $ $ $ , ` t $ $ $ % &   o $ = 9 r 4 9 t $ , 4 = = = = = = = = = = = 9 t $ , 4 9 r a ; X # $ $ $ ",
"= = = = = = = = = = = = = = = = = = = = = = = = = - ;   o $ = = = = = = = = = = = = = = = = = = = = = = = = = = = - l > , = = = ",
"= = = = = = = = = = = = = = = = = = = = = = = = = - ;   o $ = = = = = = = = = = = = = = = = = = = = = = = = = = = - 2 3 4 = = = ",
"= = = = = = = = = = = = = = = = = = = = = = = = = - ;   o $ = = = = = = = = = = = = = = = = = = = = = = = = = = = - : $ = = = = ",
"= = = = = = = = = = = = = = = = = = = = = = = = = - ; . > , = = = = = = = = = = = = = = = = = = = = = = = = = = = - : $ = = = = ",
"= = = = = = = = = = = = = = = = = = = = = = = = = - ; K V ` = = = = = = = = = = = = = = = = = = = = = = = = = = = - : $ = = = = ",
"= = = = = = = = = = = = = = = = = = = = = = = = = - ; + C +.! 5 8 ! 5 - - 8 ! 5 - - - - - - - - - - - - - - - - - y 2 $ = = = = ",
"- - - - - - - - - - - - - - - - - - - - - - - - - y u   + C ~ 6 b ~ 6 ; ; b ~ 6 ; ; ; ; ; ; ; ; ; ; ; ; ; ; ; ; ; u X % - - - - ",
": : : : : : : : ( x ; l 2 : ( x ; ; ; l 2 ( x l z ; j X O $.#.7 ) * X @ K $.#.7 o o o O +       . X O +     . K @ X *.k ; ; ; ; ",
"$ $ $ $ $ $ $ $ 0 C + X # $ 0 * o o o > 3 0 * > V * > 3 0 _ 3 $ { =.-._ V _ 3 $ $ $ { } J X o o > 3 0 * o O O ;.w 3 0 * o o O + ",
"= = = = = = = = 9 d & o $ = 9 t $ $ $ , 4 9 t , ` t , 4 9 r 4 = q W t r ` r 4 = = = 5 6 @.# $ $ , 4 9 t $ 0 T _ :.4 9 t $ $ % & ",
"= = = = = = = = = - ; o $ = = = = = = = = = = = = = = = = = = = 9 r 4 = = = = = = = - ; o $ = = = = = = = 9 t , 4 = = = = = - ; ",
"= = = = = = = = = - ; o $ = = = = = = = = = = = = = = = = = = = = = = = = = = = = = - ; O 0 9 = = = = = = = = = = = = = = = - ; ",
"8 9 = = = = = = = - ; o $ = = = = = = = = = = = = = = = = = = = = = = = = = = = = = - ; @ _ r = = = = = = = = = = = = = = = - ; ",
"e r = = = = = = = - ; o $ = = = = = = = = = = = = = = = = = = = = = = = = = = = = = 8 2 > >.4 = = = = = = = = = = = = = = = - ; ",
", 4 = = = = = = < 1 u o $ = = = = = = = = = = = = = = = = = = = = = = = = = = = = = ! d % 5 9 = = = = = = = = = = = = = = = - ; ",
"- - - - - - - - 1 ' c O % - - - - - - - - - - - - - - - - - - - - - - - - - - - - 8 :.,.; b d - - - - - - - - - - - - - - - y u ",
"( x ; l z x l z ; c   + & ; ; l 2 : : ( X z x ; ; ; ; ; l z x ; ; l 2 ( X z x ; ; b H u   + & ; ; ; ; ; ; ; ; ; ; ; ; ; ; ; u c ",
"0 * o > V * > V * o o o o o o > 3 $ $ 0 _ V * o o o O + X Z * o o > 3 0 _ V * o o ) * 7 o o o o o o o o O +   . X o o o o o o o ",
"9 t $ , ` t , ` t $ $ $ $ $ $ , 4 = = 9 r ` t $ $ $ % K > $ t $ $ , 4 9 r ` t $ $ $ $ $ $ $ $ $ $ $ $ $ 0 C + X # $ $ $ $ $ $ $ ",
"= = = = = = = = = = = = = = = = = = = = = = = = = = - 2 3 4 = = = = = = = = = = = = = = = = = = = = = = 9 +.C ) $ = = = = = = = ",
"= = = = = = = = = = = = = = = = = = = = = = = = = = - : $ = = = = = = = = = = = = = = = = = = = = = = = = 9 d T $ = = = = = = = ",
"= = = = = = = = = = = = = = = = = = = = = = = = = = - : $ = = = = = = = = = = = = = = = = = = = = = = = = = - ( 0 9 = = = = = = ",
"= = = = = = = = = = = = = = = = = = = = = = = = = < 1 2 $ = = = = = = = = = = = = = = = = = = = = = = = = = - x * t = = = = = = ",
"= = = < q 9 = = = = = = = = = = = = = = = = = = = 5 6 X % 8 9 = = = = = = = = = = = = = = = = = = = = = = = - ; o $ = = = = = = ",
"8 9 < <.s d 8 ! 5 - - - - - - - - - - - - - - - - y u + & b d - - - - - - - - - - - - - - - - - - - - - - - y u O % - - - - - - ",
"2 t 5 6 n & 2 d ,.; ; ; ; ; ; ; ; ; ; ; ; ; ; ; ; u c     + & ; ; ; ; ; ; ; ; ; ; ; ; ; ; ; ; ; ; ; ; ; ; ; u c + & ; ; ; ; ; ; "
};
