/* XPM */
static char *result[] = {
/* columns rows colors chars-per-pixel */
"64 64 78 1 ",
"  c #010101",
". c #0C0C0B",
"X c #10100E",
"o c #141413",
"O c #191917",
"+ c #1D1D1A",
"@ c #1F201C",
"# c #22221F",
"$ c #252521",
"% c #272824",
"& c #292A25",
"* c #2D2E29",
"= c #2F302B",
"- c #32322E",
"; c #353631",
": c #373832",
"> c #3A3B35",
", c #3E3E38",
"< c #3F403A",
"1 c #43433D",
"2 c #464740",
"3 c #474841",
"4 c #4B4C44",
"5 c #4F4F48",
"6 c #4F5048",
"7 c #54554C",
"8 c #57584F",
"9 c #5C5D54",
"0 c #5F6056",
"q c #606157",
"w c #63645A",
"e c #67685E",
"r c #68695F",
"t c #6B6C62",
"y c #717267",
"u c #74756A",
"i c #77786C",
"p c #797A6E",
"a c #7D7E71",
"s c #7F8074",
"d c #818275",
"f c #858679",
"g c #87887B",
"h c #8A8B7E",
"j c #8D8E80",
"k c #8F9082",
"l c #939486",
"z c #969789",
"x c #979889",
"c c #9C9D8E",
"v c #9E9F90",
"b c #9FA090",
"n c #A3A494",
"m c #A6A897",
"M c #A7A999",
"N c #ABAD9C",
"B c #AFB09F",
"V c #B3B4A3",
"C c #B7B9A7",
"Z c #B8B9A7",
"A c #BBBDAA",
"S c #BFC1AE",
"D c #C1C2AF",
"F c #C4C6B3",
"G c #C6C8B5",
"H c #C8C9B6",
"J c #CBCDB9",
"K c #CFD0BC",
"L c #D1D3BE",
"P c #D5D6C2",
"I c #D7D9C3",
"U c #DADCC6",
"Y c #DDDFC9",
"T c #DFE1CB",
"R c #E1E3CD",
"E c #E5E7D0",
"W c #E7E9D2",
"Q c #EBEDD6",
/* pixels */
"QQQQQQQQQQQQQQQQQQQQQQQQQQQQQQQQQQQQQQQQQQQQQQQQQQQQQQQQQQQQQQQQ",
"QQQQQQQQQQQQQQQQQQQQQQQQQQQQQQQQQQQQQQQQQQQQQQQQQQQQQQQQQQQQQQQQ",
"QQQQQQQQQQQQQQQQQQQQQQQQQQQQQQQQQQQQQQQQQQQQQQQQQQQQQQQQQQQQQQQQ",
"QQQQQQQQQQQQQQQQQQQQQQQQQQQQQQQQQQQQQQQQQQQQQQQQQQQQQQQQQQQQQQQQ",
"QQQQQQQQQQQQQQQQQQQQQQQQQQQQQQQQQQQQQQQQQQQQQQQQQQQQQQQQQQQQQQQQ",
"QQQQQQQQQQQQQQQQQQQQQQQQQQQQQQQQQQQQQQQQQQQQQQQQQQQQQQQQQQQQQQQQ",
"QQQQQQQQQQQQQQQQQQQQQQQQQQQQQQQQQQQQQQCwwttt9ulEQQQQQQQQQQQQQQQQ",
"QQQQQQQQQQQQQQQQQQQQQQQQQQQQQQQl3;-814.%>97wwinwGQQQQQQQQQQQQQQQ",
"QQQQQQQQQQQQQQQQQQQQQQQQQQQQQQ>3>  oVJ+.O.  74.4wHQQQQQQQQQQQQQQ",
"QQQQQQQQQQQQQQQQQQQQQQQQQQQQQ7z*oOlEQQDh@;uuo3pt#7QQQQQQQQQQQQQQ",
"QQQQQQQQQQQQQQQQQQQQQQQQQQQU>b$ 2TQQQQQQT4.987h$1 IQQQQQQQQQQQQQ",
"QQQQQQQQQQQQQQQQQQQQQQQQQQR9$4-3YQQQQcdLQRNOy47, .VQQQQQQQQQQQQQ",
"QQQQQQQQQQQQQQQQQQQQQQQQQQtu.M&pQD9rfnzjCQQn$a7t&9#vQQQQQQQQQQQQ",
"QQQQQQQQQQQQQQQQQQQQQQQQQI83t2XYQJdaLQRQLhRQhtrwwwOjTQQQQQQQQQQQ",
"QQQQQQQQQQQQQQQQQQQQQQQQQp9$n.aQnrFc7liajnpjQ<yoaXOtkQQQQQQQQQQQ",
"QQQQQQQQQQQQQQQQQQQQQQQQQ1ul9&t*1QQQqGZhQQI3-z8.#Of&ggQQQQQQQQQQ",
"QQQQQQQQQQQQQQQQQQQQQQQQSj1N8.  zrOg4QSng3ll  OX$-9t7fVQQQQQQQQQ",
"QQQQQQQQQQQQQQQQQQQQQQQQ9Ug$-   .o +,QQ4.  -    i$.AVg&QQQQQQQQQ",
"QQQQQQQQQQQQQQQQQQQQQQQnndtXO       9QQ4        a- UQ8RQQQQQQQQQ",
"QQQQQQQQQQQQQQQQQQQQQQQ7Q7.;        nQQz        +: cQgAQQQQQQQQQ",
"QQQQQQQQQQQQQQQQQQQQQQhCL+o.        VQQj        ,. *QTaQQQQQQQQQ",
"QQQQQQQQQQQQQQQQQQQQQQ0Qd>2. oX     OND.       o $o.NQ7EQQQQQQQQ",
"QQQQQQQQQQQQQQQQQQQQQsDQ,41..ZL@7<#.  .     ,t;H6 &>tQNnQQQQQQQQ",
"QQQQQQQQQQQQQQQQQQQQQwQQ.17-$QQPbCQNp,. .7nYQsIk7- w=KQtQQQQQQQQ",
"QQQQQQQQQQQQQQQQQQQQsDQV>pf1aQQQQ7RQQA-VQQQQjPQTwc 7$iQQQQQQQQQQ",
"QQQQQQQQQQQQQQQQQQQQFQQyflB<MQQQQKgQQ9WrGQQjPQQZAQ.twoQQQQQQQQQQ",
"QQQQQQQQQQQQQQQQQQQQQQQ1jVy>SQQQQQnnwKQQsAfUWQQQQQ,uj$BQQQQQQQQQ",
"QQQQQQQQQQQQQQQQQQQQQQQosK9&IQQQQQQrnLdQQxKQQQQQQQ93MttQQQQQQQQQ",
"QQQQQQQQQQQQQQQQQQQQQQF+wQi.QQQQQQQQQi1HQQQQQQQQQQ99Q09TQQQQQQQQ",
"QQQQQQQQQQQQQQQQQQQQQQa7yAx#QQQQQQQQQQIQQQQQQQQQQQ9wQiEQQQQQQQQQ",
"QQQQQQQQQQQQQQQQQQQQQQtaapc7QQQQQQQQQQQQQQQQQQQQQF06QcKQQQQQQQQQ",
"QQQQQQQQQQQQQQQQQQQQQQdQgtgdIQQQQQQQQQQQQQQQQQQQQQu$UANQQQQQQQQQ",
"QQQQQQQQQQQQQQQQQQQQQIcIcs0nnQQQQQQQQQQQQQQQQQQQQFQ$kRlQQQQQQQQQ",
"QQQQQQvLQQQLQQQQQQQQQUUBxn3JnQQQQQQQQQQQQQQQQQQQQnQ>wQKQQQQQQQQQ",
"QQQQQPetYLqlRQQQQQQQQQQhyJ1QnQQQQQQQQQQQQQQQQQQQQmQ&9QQQQQQQQQQQ",
"QQQQQ7Pn9tRQQDQQQQQQQQQe0QuQhQQQQQQQQP9LQQQQQQQQQnQ%wQQQQQQQQQQQ",
"QQQQUc5y.RQJ4zaZQQQQQQQtyQyQjQQQQQQQQY3JQQQQQQQQQnQ6FQQQQQQQQQQQ",
"QQQQBcp9&99-5u9uQQQQQQQViQ-YkQQQQQQQQQQQQQQQQQQQQbQgQQQQQQQQQQQQ",
"QQQQdn8;5qtq1,#eQQQQQQQQ4idLhQQQQQQQQQQQQQQQQQQQQjJnQQQQQQQQQQQQ",
"QQQQzzs*oMQn%-:dQQQQQQQHgWtRkQQQQQQQQQQQQQQQQQQQQjVVQQQQQQQQQQQQ",
"QQQQJz5i4QQR9oItQQQQQQQQQQ0QjQQQQQQQQQQQQQQQQQQQQjVNQQQQQQQQQQQQ",
"QQQQR#K,BQQWt;dcQQQQQQQQQQ9QjQQQQQQQQQQQQQQQQQQQQjVVQQQQQQQQQQQQ",
"QQQQVGlVQQQWy9*WQQQQQQQQQQrJnQQQQQQQQQUQQQQQQQQQQjkJQQQQQQQQQQQQ",
"QQQQQQYQQQQQ9qeQQQQQQQDDQQtHnQQQQQQQQI@LQQQQQQQQQvdPQQQQQQQQQQQQ",
"QQQQQQQQQQQQ:o<QQRGQQQQQQQrJnQQQQQQQQA>KQQQQQQQQQneWQQQQQQQQQQQQ",
"QQQQQQQQQQQQ9*%8<9ckhGQQQQrQhQQQQQQQQQQQQQQQQQQQQQsPQQQQQQQQQQQQ",
"QQQQQQQQQQQQhX7hduQQQQQQQR-VlQQQQQQQQQQQQQQQQQQQQ93QQQQQQQQQQQQQ",
"QQQQQQQQQQQQw:3rnQQQQQQQQQgncQQQQQQQQQUlQQQQQQQQQ<wQQQQQQQQQQQQQ",
"QQQQQQQQQQQQt>nQQQkQQQQQQQB8kQQQQQQQQQQIQQQEQQQQQkdQQQQQQQQQQQQQ",
"QQQQQQQQQQQQS;;tp;idddddddd*tQQQQQQQQQQPSsQTQQQQI1KQQQQQQQQQQQQQ",
"QQQQQQQQQQQQQ1* qRQQQQQQQQQRfQQQQQQQQmtZKQQQQQQQV1TQQQQQQQQQQQQQ",
"QQQQQQQQQQQQQ8X7o5DQQQQQQQQQhQQQQQQQQy7sSQQQQQQQsFQQQQQQQQQQQQQQ",
"QQQQQQQQQQQQQJUP+*tQQQQQQQQQ0nnjt3ett9X.18yGGVbybQQQQQQQQQQQQQQQ",
"QQQQQQQQQQQQQQQn <NQQQQQQQfd0:*gs>FQQQQTAnMbe2bRQQQQQQQQQQQQQQQQ",
"QQQQQQQQQQQQQQS%+8WQQIJHmg;>.lChbftssjnBTQQQkkGQQQQQQQQQQQQQQQQQ",
"QQQQQQQQQQQJt4o4-dgkhb11.ge1>VQQQ9PPPKAB000<JEesQQQQQQQQQQQQQQQQ",
"QQQQQQQQQQQk,&$1JQJzuF>1a*MAa4KQQwQQQQQQQQQ0QQQkKQQQQQQQQQQQQQQQ",
"QQQQQQQQQQQr54TQQQwuw;4*%nQIwIne4BQQQQQQQQQaBQQT0QQQQQQQQQQQQQQQ",
"QQQQQQQQQQQt1>;$77+N79FPRQQ:maTfFQQQQQQQQQQQgby4@QQQQQQQQQQQQQQQ",
"QQQQQQQQQQQWi$1:wztupFQQQQQKAhtSQQQQQQQQQQQQQb>mPQQQQQQQQQQQQQQQ",
"QQQQQQQQQQQQQrt0TQYCKQQQQQQQUbBQQQQQQQQQQQQQQQQQQQQQQQQQQQQQQQQQ",
"QQQQQQQQQQQQQQQQQQQQQQQQQQQQQQQQQQQQQQQQQQQQQQQQQQQQQQQQQQQQQQQQ",
"QQQQQQQQQQQQQQQQQQQQQQQQQQQQQQQQQQQQQQQQQQQQQQQQQQQQQQQQQQQQQQQQ",
"QQQQQQQQQQQQQQQQQQQQQQQQQQQQQQQQQQQQQQQQQQQQQQQQQQQQQQQQQQQQQQQQ"
};
