/* XPM */
static char *result[] = {
/* columns rows colors chars-per-pixel */
"64 64 100 2 ",
"   c #000000",
".  c #090A07",
"X  c #070709",
"o  c #0B0B0B",
"O  c #141412",
"+  c #181915",
"@  c #1B1C1B",
"#  c #23231F",
"$  c #242522",
"%  c #2A2B25",
"&  c #2C2D29",
"*  c #31322D",
"=  c #353631",
"-  c #3C3C35",
";  c #3D3E39",
":  c #3F4039",
">  c #42433C",
",  c #47483F",
"<  c #474743",
"1  c #474841",
"2  c #4A4B44",
"3  c #4E4F49",
"4  c #4F5046",
"5  c #515147",
"6  c #53554B",
"7  c #57584E",
"8  c #575753",
"9  c #575851",
"0  c #5A5B54",
"q  c #5E5F59",
"w  c #5F6059",
"e  c #63645A",
"r  c #66685E",
"t  c #6B6D5E",
"y  c #6D6E63",
"u  c #6E6F6A",
"i  c #6F7064",
"p  c #717265",
"a  c #73746A",
"s  c #77786C",
"d  c #787A6C",
"f  c #777871",
"g  c #7C7D71",
"h  c #7F8173",
"j  c #828474",
"k  c #84857A",
"l  c #87887B",
"z  c #8A8B7C",
"x  c #8E907F",
"c  c #8D8D82",
"v  c #8E9082",
"b  c #929484",
"n  c #94958A",
"m  c #97998C",
"M  c #9B9C8D",
"N  c #9B9D91",
"B  c #A09F98",
"V  c #9EA08F",
"C  c #9FA093",
"Z  c #A2A395",
"A  c #A6A896",
"S  c #A3A399",
"D  c #A7A89F",
"F  c #ABAC9C",
"G  c #AEB09E",
"H  c #AAABA0",
"J  c #AFB0A1",
"K  c #B3B4A4",
"L  c #B6B8A5",
"P  c #B9BAA7",
"I  c #B6B6A9",
"U  c #BBBCAC",
"Y  c #BCBEB2",
"T  c #BEC1AE",
"R  c #BFC0B1",
"E  c #C2C3B2",
"W  c #C6C8B6",
"Q  c #C9CCB7",
"!  c #C6C7B9",
"~  c #CBCDBC",
"^  c #CED1BD",
"/  c #D1D3BE",
"(  c #CCCDC1",
")  c #CED0C0",
"_  c #D3D4C3",
"`  c #D6D9C5",
"'  c #D9DBC6",
"]  c #D7D8C9",
"[  c #DBDDCA",
"{  c #DEE1CD",
"}  c #E2E3CE",
"|  c #E3E5D2",
" . c #E6E8D4",
".. c #EBEDD6",
"X. c #ECEED9",
"o. c #EEF1DB",
"O. c #F1F3DD",
"+. c #F3F5E1",
"@. c #F6F8E2",
"#. c #F8F9E5",
/* pixels */
"................................................................................................................................",
"................................................................................................................................",
"........................................X...............X.......................................................................",
"................................................X.X.......X...o.| i P  .........................................................",
"........................................X...........X...X.....x K ~ Y X.O.......................................................",
"............................................X.X...X. .X.X.U z e 6 3 j 6 y K X...................................................",
"..........................................X.......X.[ a d 6 ] m j Y k m l 3 7 m [ O.............................................",
"......................................X.........+.m 6 y v ! 6 k y - c % & 0 a y % 2 M '  .X.X...................................",
"......................................X.X...X._ h K N d F y e O O & u 0 = X $ 2 # + g M _ ..X. .................................",
"....................................X. ...X...Z 4 ` a e > 2 O           X       o $ + N D X...X.................................",
"......................................X...X._ M | y Z ( N o                           W ~ | ..X.................................",
"........................................X.~ - d j j , 0 ;                             b K { ..! / ..............................",
"..........................................O.f X. . .} &                               8 o..... .................................",
"..................................X...X.../ B X.X.X.6                                 o | ......................................",
"......................................X...K U E ~ ~                                     U ......................................",
"..................................X.......G E U A 3                                     c ..K I ................................",
"..........................................x G Q E X                                     q o.X.X.................................",
"........................................o.x ^ G ;                                       > O.X...................................",
"........................................O.d ..o.&                                       & O.X...................................",
"........................................ .6 d /                                         $ O.....................................",
"........................................P G } M                                         - O. ...................................",
"..................................X...o.j } P ,                                         : O.X.X.................................",
"................................X.....o.p O.Q -                                         0 O.X...................................",
"..................................X... .k o...*                                         q O...X.................................",
"....................................X.| m X.Y O                                         f o.X. .................................",
"................................X.....} S ..X.X                                         j X.....................................",
"........} ............................Q K .._                                           n X.....................................",
"................................X.....K T } S                                           B X.X...................................",
"..................................X.X.C ^ / i                                           x ......................................",
"....................................X.z [ o.e                                           P ......................................",
"......................................g | O.>                                         . Q ......................................",
"................................X...X.g  .+.#                                         . Q ......................................",
"............................X.......O.h .. .O                                           ' ......................................",
"..............................X.....+.j ..W X                                         X ........................................",
"..........................X.X. .....+.k X.N                                           $ ........................................",
"....................................+.l O.c                                           8 o.......................................",
"............................X.X..... .n +.y                                           2 F X...............X.....................",
"................................X.X._ S +.6                                         X ~ X.......................................",
"..........................X...X.....J T @.;                                         = K b X.....................................",
"..........X. .............X.......o.n ` O.=                                         q +...X.....................................",
"............................X.....o.l } ..$                                         z ..X.X.....................................",
"..................................@.d o.[ +                                         F K _ ......................................",
"..................................o.g O._ X                                         I { | X.....................................",
"..........................X.X.X...[ n o.P                                           a b N X.....................................",
"..................................! K X.b                                           E o.O.......................................",
"..................................J E o.e                                           ~ ......X...................................",
"......................X.........X.b [ X.>                                           / X.....X...................................",
"..........................X.....O.s X. .$                                         O [ ..X.......................................",
"..............................E U y | ..X                                         @  ...........................................",
"............................ .e I 8 e g @ & < g g g ; X                           & O...........................................",
"............................Q , )  ._ F ! ~ ] ` _ } X.[ _ ~ F b c f u a a 8 O     e ............................................",
"............................x @ c m m N c 2 * = , ; 2 e v d d G ^ [ | ..O.X.` n q p z z p O.....................................",
"..........................o.M i M ; P ....o.o.o.} | ( K p v m n N N m l j a p n K ` +.+.p o.....................................",
"..............................^ l > _ ( ) ) ) ) [ ......O.{ ^ L m l j j m K ` _ T m a t d o.....................................",
"............................O.x 2 F G F G G G J A m b b j a v G ~ _ { ..] E F m d 2 E | Q ......................................",
"..............................o.N c S S B C C U _ o.#.#.#.+.[ W K A c y z F Q  .O.Z (  .d o.....................................",
"..................................) ~ ) K E ^ v e c j k e r T [  .o.O.+.{ W F c j e j x ' ......................................",
"..................................X...X.p Z o.[ ! O.+.A  .j U g i p y c M L _ } ..j ............................................",
"........................................o.X...............o.X.} | N F { W I A b j x ............................................",
"..............................................................X... . .X.....o.o.................................................",
"............................................................ ............. .............................................} ......",
"................................................................................................................................",
"................................................................................................................................",
"................................................................................................................................"
};
