/* XPM */
static char *_83c4de1b246487cfb7252782e46557d2U5lkRRPv5tRZZxK[] = {
/* columns rows colors chars-per-pixel */
"128 128 42 1 ",
"  c #EBEDD6",
". c #DDDFCB",
"X c #C2C2B4",
"o c #B4B4A8",
"O c #706C70",
"+ c #47414D",
"@ c #100820",
"# c #47414E",
"$ c #B4B4A9",
"% c #8B8986",
"& c #393342",
"* c #1E162B",
"= c #BEBFB3",
"- c #D1D6C7",
"; c #DDE2D2",
": c #E1E5D3",
"> c #E5E8D4",
", c #E9ECD5",
"< c #64636C",
"1 c #9DA7A9",
"2 c #C0CDC9",
"3 c #CCD6CD",
"4 c #D8E0D0",
"5 c #E5E9D4",
"6 c #2D2A3F",
"7 c #676E7C",
"8 c #89949C",
"9 c #959D9F",
"0 c #A2A6A3",
"q c #AEAFA7",
"w c #1A132A",
"e c #383749",
"r c #3C3A4A",
"t c #413D4C",
"y c #45404D",
"u c #625E64",
"i c #999792",
"p c #EAECD5",
"a c #EAEDD6",
"s c #B4B3A8",
"d c #B3B3A8",
"f c #46414D",
/* pixels */
"                                                                                                                                ",
"   .XooooooooooX.  .XooooooooooooooooooooooooooooooooooooooooooooooooooooooooooooooooX..XooooooooooooooooooooooooooooooooooooX. ",
"   XO++++++++++OX  XO++++++++++++++++++++++++++++++++++++++++++++++++++++++++++++++++OXXO++++++++++++++++++++++++++++++++++++OX ",
"   o+@@@@@@@@@@#$  o+@@@@@@@@@@@@@@@@@@@@@@@@@@@@@@@@@@@@@@@@@@@@@@@@@@@@@@@@@@@@@@@@#$o+@@@@@@@@@@@@@@@@@@@@@@@@@@@@@@@@@@@@#$ ",
"   o+@@@@@@@@@@#$  o+@@@@@@@@@@@@@@@@@@@@@@@@@@@@@@@@@@@@@@@@@@@@@@@@@@@@@@@@@@@@@@@@#$o+@@@@@@@@@@@@@@@@@@@@@@@@@@@@@@@@@@@@#$ ",
"   o+@@@@@@@@@@#$  o+@@@@@@@@@@@@@@@@@@@@@@@@@@@@@@@@@@@@@@@@@@@@@@@@@@@@@@@@@@@@@@@@#$o+@@@@@@@@@@@@@@@@@@@@@@@@@@@@@@@@@@@@#$ ",
"   o+@@@@@@@@@@#$  o+@@@@@@@@@@@@@@@@@@@@@@@@@@@@@@@@@@@@@@@@@@@@@@@@@@@@@@@@@@@@@@@@#$o+@@@@@@@@@@@@@@@@@@@@@@@@@@@@@@@@@@@@#$ ",
" .X%&@@@@@@@@@@#$  o+@@@@@@@@@@@@@@@@@@@@@@@@@@@@@@@@@@@@@@@@@@@@@@@@@@@@@@@@@@@@@@*&OXo+@@@@@@@@@@@@@@@@@@@@@@@@@@@@@@@@@@@@#$ ",
" XO&*@@@@@@@@@@#$  o+@@@@@@@@@@@@@@@@@@@@@@@@@@@@@@@@@@@@@@@@@@@@@@@@@@@@@@@@@@@@@@&%X.o+@@@@@@@@@@@@@@@@@@@@@@@@@@@@@@@@@@@@#$ ",
" o+@@@@@@@@@@@@#$  o+@@@@@@@@@@@@@@@@@@@@@@@@@@@@@@@@@@@@@@@@@@@@@@@@@@@@@@@@@@@@@@#$  o+@@@@@@@@@@@@@@@@@@@@@@@@@@@@@@@@@@@@#$ ",
" o+@@@@@@@@@@@@#$  o+@@@@@@@@@@@@@@@@@@@@@@@@@@@@@@@@@@@@@@@@@@@@@@@@@@@@@@@@@@@@@@#$  o+@@@@@@@@@@@@@@@@@@@@@@@@@@@@@@@@@@@@#$ ",
" o+@@@@@@@@@@@@#$  o+@@@@@@@@@@@@@@@@@@@@@@@@@@@@@@@@@@@@@@@@@@@@@@@@@@@@@@@@@@@@@@#$  o+@@@@@@@@@@@@@@@@@@@@@@@@@@@@@@@@@@@@#$ ",
" o+@@@@@@@@@@@@#$  o+@@@@@@@@@@@@@@@@@@@@@@@@@@@@@@@@@@@@@@@@@@@@@@@@@@@@@@@@@@@@@@#$  o+@@@@@@@@@@@@@@@@@@@@@@@@@@@@@@@@@@@@#$ ",
" o+@@@@@@@@@@@@#$  o+@@@@@@@@@@@@@@@@@@@@@@@@@@@@@@@@@@@@@@*&##&*@@@@@@@@@@@@@@@@@@#$  XO&*@@@@@@@@@@@@@@@@@@@@@@@@@@@@@@@@@@#$ ",
" o+@@@@@@@@@@@@#$  o+@@@@@@@@@@@@@@@@@@@@@@@@@@@@@@@@@@@@@@&%$$%&@@@@@@@@@@@@@@@@@@#$  .X%&@@@@@@@@@@@@@@@@@@@@@@@@@@@@@@@@@@#$ ",
" o+@@@@@@@@@@@@#$  o+@@@@@@@@@@@@@@@@@@@@@@@@@@@@@@@@@@@@@@&%oo%&@@@@@@@@@@@@@@@@@@#$    o+@@@@@@@@@@@@@@@@@@@@@@@@@@@@*&&*@@#$ ",
" o+@@@@@@@@@@@@#$  o+@@@@@@@@@@@@@@@@@@@@@@@@@@@@@@@@@@@@@@*&++&*@@@@@@@@@@@@@@@@@@#$    o+@@@@@@@@@@@@@@@@@@@@@@@@@@@@&%%&@@#$ ",
" XO############OX  XO##############################################################OX    XO############################OXXO##OX ",
" .X$$$$$$$$$$$$X.  .X$$$$$$$$$$$$$$$$$$$$$$$$$$$$$$$$$$$$$$$$$$$$$$$$$$$$$$$$$$$$$$X.    .X$$$$$$$$$$$$$$$$$$$$$$$$$$$$X..X$$X. ",
"o=-;:>,          .XX.    .XX.                                                                                            .XooX. ",
"+<12345          XOOX    XOOX                                                                                            XO++OX ",
"@67890qX.  .Xoooo%&&%X.  o+&%ooooooooooooooooooooooooooX.  .XooooooooooooooooooooooooooooooooooooooooooooooooX.  .Xoooooo%&@@&%o",
"@w6ertyOX  XO++++&**&OX  o+*&++++++++++++++++++++++++++OX  XO++++++++++++++++++++++++++++++++++++++++++++++++OX  XO++++++&*@@*&+",
"@@@@@@@&%oo%&@@@@*&##OX.X%&@@@@@@@@@@@@@@@@@@@@@@@@@@@@#$.X%&@@@@@@@@@@@@@@@@@@@@@@@@@@@@@@@@@@@@@@@@@@@@@@@@&%X.o+@@@@@@@@@@@@@",
"@@@@@@@*&++&*@@@@&%$$X.XO&*@@@@@@@@@@@@@@@@@@@@@@@@@@@@#$XO&*@@@@@@@@@@@@@@@@@@@@@@@@@@@@@@@@@@@@@@@@@@@@@@@@*&OXo+@@@@@@@@@@@@@",
"@@@@@@@@@@@@@@@*&uiooX.o+@@*&&*@@@@@@@@@@@@@@*&&*@@@@@@#$o+@@@@@@@@@@@@@@@@@@@@@@@@@@@@@@@@@@@@@@@@@@@@@@@@@@@@#$o+@@@@@@@@@@@@@",
"@@@@@@@@@@@@@@@&%iu++OXo+@@&%%&@@@@@@@@@@@@@@&%%&@@@@@@#$o+@@@@@@@@@@@@@@@@@@@@@@@@@@@@@@@@@@@@@@@@@@@@@@@@@@@@#$o+@@@@@@@@@@@@@",
"@@@@@@@@@@@@@@@&%%&@@&%%&@@&%%&@@@@@@@@@@@@@@&%%&@@@@*&OXo+@@@@@@@@@@@@@@@@@@@@@@@@@@@@@@@@@@@@@@@@@@@@@@@@@@@@#$o+@@@@@@@@@@@@@",
"@@@@@@@@@@@@@@@*&&*@@*&&*@@*&&*@@@@@@@@@@@@@@*&&*@@@@&%X.o+@@@@@@@@@@@@@@@@@@@@@@@@@@@@@@@@@@@@@@@@@@@@@@@@@@@@#$o+@@@@@@@@@@@@@",
"@@@@@@@@@@@@@@@@@@@@@@@@@@@@@@@@@@@@@@@@@@@@@@@@@@@@@&%X.o+@@@@@@@@@@@@@@@@@@@@@@@@@@@@@@@@@@@@@@@@@@@@@@@@@@*&OXo+@@@@@@@@@@@@@",
"@@@@@@@@@@@@@@@@@@@@@@@@@@@@@@@@@@@@@@@@@@@@@@@@@@@@@*&OXo+@@@@@@@@@@@@@@@@@@@@@@@@@@@@@@@@@@@@@@@@@@@@@@@@@@&%X.o+@@@@@@@@@@@@@",
"@@@@@@@@@@@@@@@@@@@@@@@@@@@@@@@@@@@@@@@@@@@@@@@@@@@@@*&OXo+@@@@@@@@@@@@@@@@@@@@@@@@@@@@@@@@@@@@@@@@@@@@@@@@@@#$  o+@@@@@@@@@@@@@",
"@@@@@@@@@@@@@@@@@@@@@@@@@@@@@@@@@@@@@@@@@@@@@@@@@@@@@&%X.o+@@@@@@@@@@@@@@@@@@@@@@@@@@@@@@@@@@@@@@@@@@@@@@@@@@#$  o+@@@@@@@@@@@@@",
"@*&############&*@@*&&*@@@@@@@@@@@@@@@@@@@@@@@@@@@@@@&%X.XO##&*@@@@@@@@@@@@*&######&*@@@@@@@@@@@@@@@@@@@@@@@@#$  o+@@@@@@@@@@@@@",
"@&%$$$$$$$$$$$$%&@@&%%&@@@@@@@@@@@@@@@@@@@@@@@@@@@@@@*&OX.X$$%&@@@@@@@@@@@@&%$$$$$$%&@@@@@@@@@@@@@@@@@@@@@@@@#$  o+@@@@@@@@@@@@@",
"#OX            XO##OXXO################################OX    XO############OX      XO########################OX  XO#############",
"$X.            .X$$X..X$$$$$$$$$$$$$$$$$$$$$$$$$$$$$$$$X.    .X$$$$$$$$$$$$X.      .X$$$$$$$$$$$$$$$$$$$$$$$$X.  .X$$$$$$$$$$$$$",
"     .XooooX.    .XooooooX.            .XX.                              .XooooooooooooooooooooooooooooooooooX..XooooooX.       ",
"     XO++++OX    XO++++++OX            XOOX                              XO++++++++++++++++++++++++++++++++++OXXO++++++OX       ",
"ooooo%&@@@@&%oooo%&@@@@@@&%oooooooooooo%&&%ooooooooooX.  .Xoooooooooooooo%&@@@@@@@@@@@@@@@@@@@@@@@@@@@@@@@@@@&%%&@@@@@@&%ooX.   ",
"+++++&*@@@@*&++++&*@@@@@@*&++++++++++++&**&++++++++++OX  XO++++++++++++++&*@@@@@@@@@@@@@@@@@@@@@@@@@@@@@@@@@@*&&*@@@@@@*&++OX   ",
"@@@@@@@@@@@@@@@@@@@@@@@@@@@@@@@@@@@@@@@@@@@@@@@@@@@@@#$  o+@@@@@@@@@@@@@@@@@@@@@@@@@@@@@@@@@@@@@@@@@@@@@@@@@@@@@@@@@@@@@@@@#$.Xo",
"@@@@@@@@@@@@@@@@@@@@@@@@@@@@@@@@@@@@@@@@@@@@@@@@@@@@@#$  o+@@@@@@@@@@@@@@@@@@@@@@@@@@@@@@@@@@@@@@@@@@@@@@@@@@@@@@@@@@@@@@@@#$XO+",
"@@@@@@@@@@@@@@@@@@@@@@@@@@@@@@@@@@@@@@@@@@@@@@@@@@@@@#$  o+@@@@@@@@@@@@@@@@@@@@@@@@@@@@@@@@@@@@@@@@@@@@@@@@@@@@@@@@@@@@@@@@#$o+@",
"@@@@@@@@@@@@@@@@@@@@@@@@@@@@@@@@@@@@@@@@@@@@@@@@@@@@@#$  o+@@@@@@@@@@@@@@@@@@@@@@@@@@@@@@@@@@@@@@@@@@@@@@@@@@@@@@@@@@@@@@@@#$o+@",
"@@@@@@@@@@@@@@@@@@@*&&*@@@@@@@@@@@@@@@@@@@@@@@@@@@@@@#$  o+@@@@@@@@@@@@@@@@@@@@@@@@@@@@@@@@@@@@@@@@@@@@@@@@@@@@@@@@@@@@@@@@#$o+@",
"@@@@@@@@@@@@@@@@@@@&%%&@@@@@@@@@@@@@@@@@@@@@@@@@@@@@@#$  o+@@@@@@@@@@@@@@@@@@@@@@@@@@@@@@@@@@@@@@@@@@@@@@@@@@@@@@@@@@@@@@@@#$o+@",
"@@@@@@@@@@@@@@@@@@@&%%&@@@@@@@@@@@@@@@@@@*&&**&######OX  XO####&*@@@@@@@@*&&**&################&*@@@@@@@@@@@@@@@@@@@@@@@@*&OXo+@",
"@@@@@@@@@@@@@@@@@@@*&&*@@@@@@@@@@@@@@@@@@&%%&&%$$$$$$X.  .X$$$$%&@@@@@@@@&%%&&%$$$$$$$$$$$$$$$$%&@@@@@@@@@@@@@@@@@@@@@@@@&%X.o+@",
"#########################################OXXOOX                XO########OXXOOX                XO########################OX  XO#",
"$$$$$$$$$$$$$$$$$$$$$$$$$$$$$$$$$$$$$$$$$X..XX.                .X$$$$$$$$X..XX.                .X$$$$$$$$$$$$$$$$$$$$$$$$X.  .X$",
"                                             .XX.                          .XX.                  .XooX.      .XX.               ",
"                                             XOOX                          XOOX                  XO++OX      XOOX               ",
"oooooooooooooooX.          .XX..XX.  .XooX.  o+&%ooooooooooooooooooX..Xoooo%&&%oooooooooooooooooo%&@@&%oooooo%&&%ooooooooooooooo",
"+++++++++++++++OX          XOOXXOOX  XO++OX  o+*&++++++++++++++++++OXXO++++&**&++++++++++++++++++&*@@*&++++++&**&+++++++++++++++",
"@@@@@@@@@@@@@@@&%X.  .Xoooo%&&%%&&%oo%&@@&%oo%&@@@@@@@@@@@@@@@@@@*&OXXO&*@@@@@@@@@@@@@@@@@@@@@@@@@@@@@@@@@@@@@@@@@@@@@@@@@@@@@@@",
"@@@@@@@@@@@@@@@*&OX  XO++++&**&&**&++&*@@*&++&*@@@@@@@@@@@@@@@@@@&%X..X%&@@@@@@@@@@@@@@@@@@@@@@@@@@@@@@@@@@@@@@@@@@@@@@@@@@@@@@@",
"@@@@@@@@@@@@@@@@@#$  o+@@@@@@@@@@@@*&##&*@@@@@@@@*&&*@@@@@@@@@@@@&%X..X%&@@@@@@@@@@@@@@@@@@@@@@@@@@@@@@@@@@@@@@@@@@@@@@@@@@@@@@@",
"@@@@@@@@@@@@@@@@@#$  o+@@@@@@@@@@@@&%$$%&@@@@@@@@&%%&@@@@@@@@@@@@*&OXXO&*@@@@@@@@@@@@@@@@@@@@@@@@@@@@@@@@@@@@@@@@@@@@@@@@@@@@@@@",
"@@@@@@@@@@@@@@@@@#$  o+@@@@@@@@@@@@&%X.o+@@@@@@@@&%%&*&&*@@@@@@@@*&OXXO&*@@@@@@@@@@@@@@@@@@@@@@@@@@@@@@@@@@@@@@@@@@@@@@@@@@@@@@@",
"@@@@@@@@@@@@@@@@@#$  o+@@@@@@@@@@@@*&OXo+@@@@@@@@*&&*&%%&@@@@@@@@&%X..X%&@@@@@@@@@@@@@@@@@@@@@@@@@@@@@@@@@@@@@@@@@@@@@@@@@@@@@@@",
"@@@@@@@@@@@@@@@@@#$  o+@@@@@@@@@@@@@@&%%&@@@@@@@@@@@@&%%&@@@@@@@@#$    o+@@@@@@@@@@@@@@@@@@@@@@@@@@@@@@@@@@@@@@@@@@@@@@@@@@@@@@@",
"@@@@@@@@@@@@@@@@@#$  o+@@@@@@@@@@@@@@*&&*@@@@@@@@@@@@*&&*@@@@@@@@#$    o+@@@@@@@@@@@@@@@@@@@@@@@@@@@@@@@@@@@@@@@@@@@@@@@@@@@@@@@",
"@@@@@@@@@@@@@@@@@#$  o+@@@@@@@@@@@@@@@@@@@@@@@@@@@@@@@@@@@@@@@@@@&%X.  o+@@@@@@@@@@@@@@@@@@@@@@@@@@@@@@@@@@@@@@@@@@@@@@@@@@@@@@@",
"@@@@@@@@@@@@@@@@@#$  o+@@@@@@@@@@@@@@@@@@@@@@@@@@@@@@@@@@@@@@@@@@*&OX  o+@@@@@@@@@@@@@@@@@@@@@@@@@@@@@@@@@@@@@@@@@@@@@@@@@@@@@@@",
"@@@@@@@@@@@@@@@@@#$.X%&@@@@@@@@@@@@@@@@@@@@@@@@@@@@@@@@@@@@@@@@@@@@#$  o+@@@@@@@@@@@@@@@@@@@@@@@@@@@@@@@@@@@@@@@@@@@@@@@@@@@@@@@",
"@@@@@@@@@@@@@@@@@#$XO&*@@@@@@@@@@@@@@@@@@@@@@@@@@@@@@@@@@@@@@@@@@@@#$  o+@@@@@@@@@@@@@@@@@@@@@@@@@@@@@@@@@@@@@@@@@@@@@@@@@@@@@@@",
"@@@@@@@@@@@@@@@@@#$XO&*@@@@@@@@@@@@@@@@@@@@@@@@@@@@@@@@*&&*@@*&&**&OX  XO##&**&##################################&*@@@@@@@@@@@@@",
"@@@@@@@@@@@@@@@@@#$.X%&@@@@@@@@@@@@@@@@@@@@@@@@@@@@@@@@&%%&@@&%%&&%X.  .X$$%&&%$$$$$$$$$$$$$$$$$$$$$$$$$$$$$$$$$$%&@@@@@@@@@@@@@",
"@*&####&*@@*&##&*#$  XO################################OXXO##OXXOOX        XOOX                                  XO#############",
"@&%$$$$%&@@&%$$%&#$  .X$$$$$$$$$$$$$$$$$$$$$$$$$$$$$$$$X..X$$X..XX.        .XX.                                  .X$$$$$$$$$$$$$",
"#OX    XO##OX  XOOX                    .XX.              .XooooX..XooX.    .XooooooooooooooooooooooooX.    .XooX..XX.           ",
"$X. ppa.X$$X.  .XX.                    XOOX              XO++++OXXO++OX    XO++++++++++++++++++++++++OX    XO++OXXOOX           ",
"ooosdddoooooooooooooooooooooooooooooooo%&&%ooooooooX.    o+@@@@&%%&@@&%oooo%&@@@@@@@@@@@@@@@@@@@@@@@@&%oooo%&@@&%%&#$  .Xooooooo",
"++++fff++++++++++++++++++++++++++++++++&**&++++++++OX    o+@@@@*&&*@@*&++++&*@@@@@@@@@@@@@@@@@@@@@@@@*&++++&*@@*&&*#$  XO+++++++",
"@@@@@@@@@@@@@@@@@@@@@@@@@@@@@@@@@@@@@@@@@@@@@@@@@@@#$    o+@@@@@@@@@@@@@@@@@@@@@@@@@@@@@@@@@@@@@@@@@@@@@@@@@@@@@@@@#$  o+@@@@@@@",
"@@@@@@@@@@@@@@@@@@@@@@@@@@@@@@@@@@@@@@@@@@@@@@@@@@@#$    o+@@@@@@@@@@@@@@@@@@@@@@@@@@@@@@@@@@@@@@@@@@@@@@@@@@@@@@@@#$  o+@@@@@@@",
"@@@@@@@@@@@@@@@@@@@@@@@@@@@@@@@@@@@@@@@@@@@@@@@@@@@#$    o+@@@@@@@@@@@@@@@@@@@@@@@@@@@@@@@@@@@@@@@@@@@@@@@@@@@@@@@@#$.X%&@@@@@@@",
"@@@@@@@@@@@@@@@@@@@@@@@@@@@@@@@@@@@@@@@@@@@@@@@@@@@#$    o+@@@@@@@@@@@@@@@@@@@@@@@@@@@@@@@@@@@@@@@@@@@@@@@@@@@@@@@@#$XO&*@@@@@@@",
"@@@@@@@@@@@@@@@@@@@@@@@@@@@@@@@@@@@@@@@@@@@@@@@@@@@#$    o+@@@@@@@@@@@@@@@@@@@@@@@@@@@@@@@@@@@@@@@@@@@@@@@@@@@@@@@@#$o+@@@@@@@@@",
"@@@@@@@@@@@@@@@@@@@@@@@@@@@@@@@@@@@@@@@@@@@@@@@@@@@#$    o+@@@@@@@@@@@@@@@@@@@@@@@@@@@@@@@@@@@@@@@@@@@@@@@@@@@@@@@@#$o+@@@@@@@@@",
"@@@@@@@@@@@@@@@@@@@@@@@@@@@@@@@@@@@@@@@@@@@@@@@@@@@#$    o+@@@@@@@@@@@@@@@@@@@@@@@@@@@@@@@@@@@@@@@@@@@@@@@@@@@@@@@@#$o+@@@@@@@@@",
"@@@@@@@@@@@@@@@@@@@@@@@@@@@@@@@@@@@@@@@@@@@@@@@@@@@#$    o+@@@@@@@@@@@@@@@@@@@@@@@@@@@@@@@@@@@@@@@@@@@@@@@@@@@@@@@@#$o+@@@@@@@@@",
"@@@@@@@@@@@@@@@@@@@@@@@@@@@@@@@@@@@@@@@@@@@@@@@@@@@#$  .X%&@@@@@@@@@@@@@@@@@@@@@@@@@@@@@@@@@@@@@@@@@@@@@@@@@@@@@@@@#$o+@@@@@@@@@",
"@@@@@@@@@@@@@@@@@@@@@@@@@@@@@@@@@@@@@@@@@@@@@@@@@@@#$  XO&*@@@@@@@@@@@@@@@@@@@@@@@@@@@@@@@@@@@@@@@@@@@@@@@@@@@@@@@@#$o+@@@@@@@@@",
"@@@@@@@@@@@@@@@@@@@@@@@@@@@@@@@@@@@@@@@@@@@@@@@@@@@#$  XO&*@@@@@@@@@@@@@@@@@@@@@@@@@@@@@@@@@@@@@@@@@@@@@@@@@@@@@@@@#$o+@@@@@@@@@",
"@@@@@@@@@@@@@@@@@@@@@@@@@@@@@@@@@@@@@@@@@@@@@@@@@@@#$  .X%&@@@@@@@@@@@@@@@@@@@@@@@@@@@@@@@@@@@@@@@@@@@@@@@@@@@@@@@@#$o+@@@@@@@@@",
"@@@@@@@@@@@@@@@@@@@@@@@@@@@@@@@@@@@@@@@@@@@@@@@@@@@#$    XO&**&##&**&######&**&####################################OXo+@@@@@@@@@",
"@@@@@@@@@@@@@@@@@@@@@@@@@@@@@@@@@@@@@@@@@@@@@@@@@@@#$    .X%&&%$$%&&%$$$$$$%&&%$$$$$$$$$$$$$$$$$$$$$$$$$$$$$$$$$$$$X.o+@@@@@@@@@",
"###################################################OX      XOOX  XOOX      XOOX                                      XO#########",
"$$$$$$$$$$$$$$$$$$$$$$$$$$$$$$$$$$$$$$$$$$$$$$$$$$$X.      .XX.  .XX.      .XX.                                      .X$$$$$$$$$",
"oooooooooooooooooX.    .XooooX.        .XooX.  .XX.  .XooX..XooooooooX..XX..XooooooooooX.        .XooX.      .XX..XooX.         ",
"+++++++++++++++++OX    XO++++OX        XO++OX  XOOX  XO++OXXO++++++++OXXOOXXO++++++++++OX        XO++OX      XOOXXO++OX         ",
"@@@@@@@@@@@@@@@@@&%X.  o+@@@@&%oooooooo%&@@&%oo%&&%oo%&@@&%%&@@@@*&&*&%%&&%%&@@@@@@@@*&OX.Xoooooo%&@@&%ooooX.XOui%&@@&%ooooooX. ",
"@@@@@@@@@@@@@@@@@*&OX  o+@@@@*&++++++++&*@@*&++&**&++&*@@*&&*@@@@&%%&*&&**&&*@@@@@@@@&%X.XO++++++&*@@*&++++OX.Xiu&*@@*&++++++OX ",
"@@@@@@@@@@@@@@@@@@@#$  o+@@@@@@@@@@@@@@@@@@@@@@@@@@@@@@@@@@@@@@@@&%%&@@@@@@@@@@@@@@@@#$  o+@@@@@@@@@@@@@@@@&%oo%&@@@@@@@@@@@@#$ ",
"@@@@@@@@@@@@@@@@@@@#$  o+@@@@@@@@@@@@@@@@@@@@@@@@@@@@@@@@@@@@@@@@*&&*@@@@@@@@@@@@@@@@#$  o+@@@@@@@@@@@@@@@@*&++&*@@@@@@@@@@@@#$ ",
"@@@@@@@@@@@@@@@@@@@#$  o+@@@@@@@@@@@@@@@@@@@@@@@@@@@@@@@@@@@@@@@@@@@@@@@@@@@@@@@@@@@@#$  o+@@@@@@@@@@@@@@@@@@@@@@@@@@@@@@@@@@#$ ",
"@@@@@@@@@@@@@@@@@@@#$  o+@@@@@@@@@@@@@@@@@@@@@@@@@@@@@@@@@@@@@@@@@@@@@@@@@@@@@@@@@@@@#$  o+@@@@@@@@@@@@@@@@@@@@@@@@@@@@@@@@@@#$ ",
"@@@@@@@@@@@@@@@@@@@#$  o+@@@@@@@@@@@@@@@@@@@@@@@@@@@@@@@@@@@@@@@@@@@@@@@@@@@@@@@@@@@@#$  XO&*@@@@@@@@@@@@@@@@@@@@@@@@@@@@@@@@#$ ",
"@@@@@@@@@@@@@@@@@@@#$  o+@@@@@@@@@@@@@@@@@@@@@@@@@@@@@@@@@@@@@@@@@@@@@@@@@@@@@@@@@@@@#$  .X%&@@@@@@@@@@@@@@@@@@@@@@@@@@@@@@@@#$ ",
"#&*@@@@@@@@@@@@@@@@#$  o+@@@@@@@@@@@@@@@@@@@@@@@@@@@@@@@@@@@@@@@@@@@@@@@@@@@@@@@@@@@@#$  .X%&@@@@@@@@@@@@@@@@@@@@@@@@@@@@@@@@#$ ",
"$%&@@@@@@@@@@@@@@@@#$  o+@@@@@@@@@@@@@@@@@@@@@@@@@@@@@@@@@@@@@@@@@@@@@@@@@@@@@@@@@@@@#$  XO&*@@@@@@@@@@@@@@@@@@@@@@@@@@@@@@@@#$ ",
"o%&@@@@@@@@@@@@@@@@#$  o+@@@@@@@@@@@@@@@@@@@@@@@@@@@@@@@@@@@@@@@@@@@@@@@@@@@@@@@@@@@@&%oo%&@@@@@@@@@@@@@@@@@@@@@@@@@@@@@@@@@@#$ ",
"+&*@@@@@@@@@@@@@@@@#$  o+@@@@@@@@@@@@@@@@@@@@@@@@@@@@@@@@@@@@@@@@@@@@@@@@@@@@@@@@@@@@*&++&*@@@@@@@@@@@@@@@@@@@@@@@@@@@@@@@@@@#$ ",
"@@@@@@@@@@@@@@@@@*&OX  o+@@@@@@@@@@@@@@@@@@@@@@@@@@@@@@@@@@@@@@@@@@@@@@@@@@@@@@@@@@@@*&####&*@@@@@@@@@@@@@@@@@@@@@@@@@@@@@@@@#$ ",
"@@@@@@@@@@@@@@@@@&%X.  o+@@@@@@@@@@@@@@@@@@@@@@@@@@@@@@@@@@@@@@@@@@@@@@@@@@@@@@@@@@@@&%$$$$%&@@@@@@@@@@@@@@@@@@@@@@@@@@@@@@@@#$ ",
"#################OX    XO##########################################################&*#$    XO################################OX ",
"$$$$$$$$$$$$$$$$$X.    .X$$$$$$$$$$$$$$$$$$$$$$$$$$$$$$$$$$$$$$$$$$$$$$$$$$$$$$$$$$%&#$    .X$$$$$$$$$$$$$$$$$$$$$$$$$$$$$$$$X. ",
"oX.    .XX.  .XX.              .XooooooX..XX.            .XX.      .XooX..XX.      XOOX                                         ",
"+OX    XOOX  XOOX              XO++++++OXXOOX            XOOX      XO++OXXOOX      .XX.                                         ",
"@&%oooo%&&%oo%&&%oooooooooooooo%&@@@@@@&%%&&%ooooooooX.  o+&%oooooo%&@@&%%&&%ooooooooooooooooooooooooooooX.    .Xooooooooooooooo",
"@*&++++&**&++&**&++++++++++++++&*@@@@@@*&&**&++++++++OX  o+*&++++++&*@@*&&**&++++++++++++++++++++++++++++OX    XO+++++++++++++++",
"@@@@@@@@@@@@@@@@@@@@@@@@@@@@@@@@@@@@@@@@@@@@@@@@@@@@@#$.X%&@@@@@@@@@@@@@@@@@@@@@@@@@@@@@@@@@@@@@@@@@@@@@@&%X.  o+@@@@@@@@@@@@@@@",
"@@@@@@@@@@@@@@@@@@@@@@@@@@@@@@@@@@@@@@@@@@@@@@@@@@@@@#$XO&*@@@@@@@@@@@@@@@@@@@@@@@@@@@@@@@@@@@@@@@@@@@@@@*&OX  o+@@@@@@@@@@@@@@@",
"@@@@@@@@@@@@@@@@@@@@@@@@@@@@@@@@@@@@@@@@@@@@@@@@@@@@@#$o+@@@@@@@@@@@@@@@@@@@@@@@@@@@@@@@@@@@@@@@@@@@@@@@@@@&%X.o+@@@@@@@@@@@@@@@",
"@@@@@@@@@@@@@@@@@@@@@@@@@@@@@@@@@@@@@@@@@@@@@@@@@@@@@#$o+@@@@@@@@@@@@@@@@@@@@@@@@@@@@@@@@@@@@@@@@@@@@@@@@@@*&OXo+@@@@@@@@@@@@@@@",
"@@@@@@@@@@@@@@@@@@@@@@@@@@@@@@@@@@@@@@@@@@@@@@@@@@@@@#$o+@@@@@@@@@@@@@@@@@@@@@@@@@@@@@@@@@@@@@@@@@@@@@@@@@@@@#$o+@@@@@@@@@@@@@@@",
"@@@@@@@@@@@@@@@@@@@@@@@@@@@@@@@@@@@@@@@@@@@@@@@@@@@@@#$o+@@@@@@@@@@@@@@@@@@@@@@@@@@@@@@@@@@@@@@@@@@@@@@@@@@@@#$o+@@@@@@@@@@@@@@@",
"@@@@@@@@@@@@@@@@@@@@@@@@@@@@@@@@@@@@@@@@@@@@@@@@@@@@@#$o+@@@@@@@@@@@@@@@@@@@@@@@@@@@@@@@@@@@@@@@@@@@@@@@@@@@@#$XO&*@@@@@@@@@@@@@",
"@@@@@@@@@@@@@@@@@@@@@@@@@@@@@@@@@@@@@@@@@@@@@@@@@@@@@#$o+@@@@@@@@@@@@@@@@@@@@@@@@@@@@@@@@@@@@@@@@@@@@@@@@@@@@#$.X%&@@@@@@@@@@@@@",
"@@@@@@@@@@@@@@@@@@@@@@@@@@@@@@@@@@@@@@@@@@@@@@@@@@@*&OXo+@@@@@@@@@@@@@@@@@@@@@@@@@@@@@@@@@@@@@@@@@@@@@@@@@@@@#$  o+@@@@@@@@@@@@@",
"@@@@@@@@@@@@@@@@@@@@@@@@@@@@@@@@@@@@@@@@@@@@@@@@@@@&%X.o+@@@@@@@@@@@@@@@@@@@@@@@@@@@@@@@@@@@@@@@@@@@@@@@@@@@@#$  o+@@@@@@@@@@@@@",
"@@@@@@@*&&*@@@@@@@@@@@@@@@@@@@@@@@@@@@@@@@@@@@@@@@@#$  XO##&*@@@@@@@@@@@@@@@@@@@@@@@@@@@@@@@@@@@@@@@@@@@@@@@@#$  o+@@@@@@@@@@@@@",
"@@@@@@@&%%&@@@@@@@@@@@@@@@@@@@@@@@@@@@@@@@@@@@@@@@@#$  .X$$%&@@@@@@@@@@@@@@@@@@@@@@@@@@@@@@@@@@@@@@@@@@@@@@@@#$  o+@@@@@@@@@@@@@",
"#&*@@*&OXXO##&**&##################################OX      XO################################################OX  XO#############",
"$%&@@&%X..X$$%&&%$$$$$$$$$$$$$$$$$$$$$$$$$$$$$$$$$$X.      .X$$$$$$$$$$$$$$$$$$$$$$$$$$$$$$$$$$$$$$$$$$$$$$$$X.  .X$$$$$$$$$$$$$",
" o+@@#$      o+#$                                                                                                               "
};
© 2021 GitHub, Inc.
Terms