/* XPM */
static char *e9c78176b2804bb6bc0f2e35e3d2e72aOGzuwEeqS6a4y9Lt[] = {
/* columns rows colors chars-per-pixel */
"128 128 70 1 ",
"  c #EBEDD6",
". c #B0B1A0",
"X c #585850",
"o c #0E0E0D",
"O c black",
"+ c #3A3B35",
"@ c #1D1D1A",
"# c #66675D",
"$ c #D1D3BE",
"% c #BEC0AD",
"& c #A1A293",
"* c #75766B",
"= c #929485",
"- c #848578",
"; c #494A42",
": c #CDCFBB",
"> c #2C2C28",
", c #DCDEC8",
"< c #D4D6C1",
"1 c #B7B8A7",
"2 c #C3C5B2",
"3 c #D0D1BD",
"4 c #6B6B61",
"5 c #B9BAA8",
"6 c #AAAB9C",
"7 c #A6A797",
"8 c #EBEED6",
"9 c #B7BAA8",
"0 c #77786C",
"q c #DCDDC8",
"w c #0F0F0D",
"e c #EBECD6",
"r c #9D9F8F",
"t c #97998A",
"y c #EAEDD6",
"u c #87897B",
"i c #C6C8B4",
"p c #DDDFC9",
"a c #E3E4CF",
"s c #A5A597",
"d c #ECEDD6",
"f c #EAECD6",
"g c #E0E1CB",
"h c #CFD1BD",
"j c #E7E9D2",
"k c #BBBDAA",
"l c #DEE0CB",
"z c #6A6A60",
"x c #D9DAC4",
"c c #E9EBD5",
"v c #E6E8D1",
"b c #DDDEC8",
"n c #BFC1AE",
"m c #66685D",
"M c #E2E4CF",
"N c #D4D6C2",
"B c #6E6F65",
"V c #7C7D71",
"C c #D2D4C0",
"Z c #66665D",
"A c #717267",
"S c #C9CCB7",
"D c #EBEDD7",
"F c #B3B4A4",
"G c #BFC0AD",
"H c #AAAB9B",
"J c #909283",
"K c #D1D2BE",
"L c #CDD0BB",
"P c #D8DAC5",
/* pixels */
"                                                                                                                                ",
"                                                                                                                                ",
"                                                                                                                                ",
"                                                                                                                                ",
"                                                                                                                                ",
"                                                                                                                                ",
"                                                                                                                                ",
"                                                                                                                                ",
"                                                                                                                                ",
"                                                                                                                                ",
"                                                                                                                                ",
"                                                                                                                                ",
"                                                                                 .........                                      ",
"                                                                             XoOO++++++++@O++#$                                 ",
"                                                                %&****= %*-.XO;*;++++#**.::.&Xo-                                ",
"                                                              =>Oo@OOOoo@Oo@OOOO>+***;+*+o>X=,.;;                               ",
"                                                             >OO;+OOOOoO;&$*OOOOOOOOOOOOOOOoOo#:X>                              ",
"                                                            >O>.++oOOOo>.   *OOo#o@OOOOoX.&X@OO@%;X                             ",
"                                                           +o*%>#OOOOX%      +OO@O;..-XOOO>=,.XOo*O%                            ",
"                                                          X@:%oOoOO+.           *OOO@-,-o>X@o*:*oO;+                            ",
"                                                         >o,%oOoOo=              .@OO@O;.;o&-@O;:;OO                            ",
"                                                       %>O=%oOOOo.                 >Oo-*O*&o-,XO>oOO=                           ",
"                                                      %o>@%oO@o;=          *OO+    %=>O;.>@=@X,oOOOO=                           ",
"                                                     $o=@>O*=o-+          &=%         >O@.-o.>@>OO>O+                           ",
"                                                     ;#=OOX +XXX     $=#>O>;>OOO+%    $ooO%=o.;O*O@.O;$                         ",
"                                                    .@,@oo=.O@>$   *@O+*&       .      %oXo==o%-o+#+@@O%                        ",
"                                                    @&X#oX,@@O=    %.                   %O=@X=o,*@ >OX,+&                       ",
"                                                   .>X#@@,*OO@     .X+>+*    $   &#+%    =o:@-#+ >o-oO;$                        ",
"                                                   X@+#O&:OoO=    #OX.-oo%  %= .>>-OO;.   o+%o+O.-OO@>;o.                       ",
"                                                   oo%O+ XO@@   %++$   $;>*;>*=@&    -o=  .o.#o@@&O>>O&=o=                      ",
"                                                  .O&*O. O>@= .;Oo       o*&%:o.     =>O;& -@&O>#@@O%XO=%o=                     ",
"                                                  #> oX %o*O;@OOO.       O   ->        @OO>%@#OO>OXO+%Oo=%o=                    ",
"                                                  o.&O: @->OOOOO@  &;+=  O   *+   ..   XOOOo*OoOOOX@O:o-O%%o%                   ",
"                                                 *+ X+ ;o-OOOOOOo *OOOO&&O   %> .OOOO= XOOOOOoO>=O>+O*+&-o,-@                   ",
"                                                $o. @&.O+;OOOOOOO@*OOOO++@    @&@OOOOo$OOOOOOOOO:@+oO>** +X,o*                  ",
"                                                XX $@ @O#OOOOOOOOOOOOOO>o*    #@OOOOOO;OOOOOOOOO--@>oO   %O%@o                  ",
"                                               %O$ **-OOXOOOOOOOOOOOOOOOO*    &OOOOOOOOOOOOOOOOO+,O;oO    XX %                  ",
"                                               +*  o:oO>>OOOOOOOOOOOOOOOO.    $OOOOOOOOOOOOOOOOOO.X@OO&   %o                    ",
"                                              .o  =>XOOXOOOOOOOOOOOOOOOO@      +OOOOOOOOOOOOOOOOO+=OOOX    @&                   ",
"                                              >*  XXOOOXOOOOOOOOOOOOOOOO+      *OOOOOOOOOOOOOOOO>o-OOOO    #X                   ",
"                                             =@   o;OO>oOOOOOOOOOOOOOOOO;      *OOOOOOOOOOOOOOOOO#@OOOO=   %o                   ",
"                                             @=  &oo@>@OOOOOOOOOOOOOOOOO#      +OOOOOOOOOOOOOOOOO#@OOOO@    @&                  ",
"                                            -@   #o>oX>OOOOOOOOOOOOOOOOOO*    +OOOOOOOOOOOOOOOOOOo*OOoOO=   *;                  ",
"                                            o.   @O-o*OOOOO+>ooOOOOOOOOOOO+. *OOOOOOOOOOOOOOOO@>OO;OO>O@@   $O$                 ",
"                                           *+   %OO&;;OOOO>  -O@@OOOOOOOOOOO+oOOOOOOOOOOOOOOOo .O*OOoXo;>&   ;*                 ",
"                                           o.   -O>;-o>o+O=   +@;.*#++@OOOOOOOOOOOOOOOOO+-%.O- .o-OOo>=o*X   .o                 ",
"                                          *+    ;O-O-@O;Oo    ..=X    =>OOOOOOOOOOOOoX=    >*  &=;@OOO,o*O    >-                ",
"                                          o.    OO-@X#OXOX       &o      .*#@OOOO>#&      --   @=o%OOO&++>*   %+                ",
"                                         *+    .O>*#o&O#O&        +#        @>.%         =X    %.> +OO*+@o@                     ",
"                                         o.    *O-+.*.O*O         $O%      #++X         =X      +- -OO+##OO&                    ",
"                                        <X     +O1O  &>+>          *;     .o$ >>       *X      .o   OO+-#;O;                    ",
"                                               oo @  *-@X           X-    @-   X;     X=       -%   >OO%@&Oo                    ",
"                                              $O; +  +.o*            @-  X+     -o$  X=             #oO,O Oo=                   ",
"                                              =O-**  o*O-            .o =o       -+ #-              .OO.O ;>>                   ",
"                                              XO.X= %o*O.             ;+o.        +O;               $OO=O -Xo%                  ",
"                                              @O +. -;XO%              +-  &oX                       OO#* .+X#                  ",
"                                             $OO O  +=+O                   >:>*                      OO.  %>&@                  ",
"                                             =@+$@  O:oO                   >>@.                      OO-   O o%                 ",
"                                             XX+.+ %> O+                    .%                       O@*   o 2                  ",
"                                             @=+** -#.O+                                             O#*   +                    ",
"                                            $@.+X= ;&&O*                                             O*+   ;                    ",
"                                            =X$X+. @:*O=                                          ;  O=@   **                   ",
"                                            X=  +.$@ XO.                                             O&O   -#                   ",
"                                            >%  O =X +O =                                            +@O&  .+                   ",
"                                            O   o X= o@ +                                             ;O;  %>                   ",
"                                           .+  .+ >% O+ +                                         ;   +@O$  O                   ",
"             34                            &-  &;,o %O* +                                         +   ++X*  +                   ",
"            5;$        &                       **&; .O. +                                         +   ++&+                      ",
"             ..%     #o>6                      #-** &O  +                                         +   @+,O                      ",
"           7o+++.  &oX$                        +.+. *>  @                                         +   O+ O                      ",
"         8:O$   @ *o.                          @:o  *#  O                   *                     +   O+ O                      ",
"        8 XX .**X@>$      -9                   O:@  **  O                  .o@-                   +   O;:@                      ",
"          o >o-+;O      -@+O0q                .+&;  **  O                  .>X;                   +   O*%#                      ",
"         %> o%:XOO%    =O-  >*w               =X**  *#  O                   ;;$                   +   O=                        ",
"         =#.+:@X>O-   &o;=-  o>%              #-**  *o  O                                         +   O$                        ",
"         *-.+-X*;>+OOO@>OX*@-+o&              % **  *O. O                                         @   O                         ",
"       e + **+*o=    =-=O,Xo+++*                **   +. O                                         O  %>                         ",
"       e + **;-OOOOOoX*@>oO*>Or;                *Oo+ +. O                                         O  .+                         ",
"       e +r-#*+*;O@t  eXX;+OO> +                o*$  +. O                                         O  .+                         ",
"       e **1+%@O@O.y   uoo&Oo* +               -X    O  O                                         O  **                         ",
"       y =+ O%  o+y    i,+XO= *#                     O  O                                         O  *#                         ",
"         :O *o+@O&e     &o@O$ +=                     O  O                                         O  &+                         ",
"        y ++  *>opy     >#Oo&$O$                     O  O                                         O  .+                         ",
"         :>O* -O=e     ao%@**;X                      O  O                                         O  **                         ",
"         o*&;O@sdf     g>  XXO$                     $@ %>                                         O  **                         ",
"         g   ,he       e@**oX@                      .+ .+                    %                    O  +.                         ",
"           yjkl        e,O@#.;                      .+ .+                   XO$                   o  +.                         ",
"                       e O-# O               *+     .+ .+                  .@@=                   +  +.                         ",
"                       e,O;> O                      .+ .+                  **=*                   +  @$                         ",
"                       e>@OO#O     $..              .+ %>                  .oo%                   +  O                          ",
"                       eO%;>>O=..=;@O+OOOOO         .+  O                                            +.                         ",
"                       eO-O+-OXOOOX=                 o  O                                            +.                         ",
"                       e=OO@ O                       O  O                                         z-;@                          ",
"                       e &O@%O#+++O+               $>OX.o                                         @#-+                          ",
"                       e,@Oo@O>O#.                   X**+                                         >-.+                          ",
"                       e=+#;o. *;                    +.:@                    %+#                  O;#X                          ",
"                       e**#X+        $               #*:O                     .%                  O:@&                          ",
"                       e*XXO>       @-               &@@O                             $           z%o                           ",
"                       e:;>OO%X. =+>O+++++++++++++++++OOO.                       #++  =            ;X                           ",
"                        8 :OO@;X.oOX..................=@o.                     .. ..             .O@x                           ",
"                          -@oXoOO#.                    $@.                  - %++                .o*j                           ",
"                         8@X;oOOo%                      O                  >>>                   *;+.                           ",
"                         eO&Oo+&@+*-                    O                 .o&@>++                *; c                           ",
"                         v@*O@++oO>>+                   @$                 ;o-...               %>%                             ",
"                          b*-   oo@>@*                  -         %........*OOO+;  1           .O*                              ",
"                               .o+@+=*                  @@#***#+>OOO>++++++++oOOOO@OO>.....**#+>%                               ",
"                               *oO-oo$               &oOOoo#@X-*o,%O.          .=X+++++>o+>O+-.                                 ",
"                               *OO;+=               $o. :*o;o> XX=;@*                   O  o=                                   ",
"                              %OOo;>$               ;;.XOO+&*#OOO;.**                   O  +.                                   ",
"                             #>O+@>=       .....**X+o+>O@O+        +>++++++X***=%       o  #*                                   ",
"                       jn..*>o;&Oo+++@OOOOo++oO>@OO;;%.OO@+        O.......=***+o#.    #-  $@X                                  ",
"                       r++@@O@;o>#...<      $o-;@O- &oo#*;*        O            %++OOOOO&    +OmM                               ",
"                      e:*Xo@@@OOo     %-;=  .+;*,XOO@X***@#        O                   O      *X                                ",
"                      No>@OXo++=     =o $++ ;OOX.;&o     *Oo*      o                   O       *B                               ",
"                      V;%-;o&        o   roO;OX>+X;=    =o%.X@X**;>&                  %O        OC                              ",
"                      Z*;O@=        .>@>+@O=.+O+>O-    .o%    *X+;.                    #>%     $o*                              ",
"                      AX+#>-++++#+OOOo# ,@@O+%%..     .>#     %=+                       X+%  *&O>O                              ",
"                      S+o;XO#oO>@-:#O;*:>X#&          ;O;$@+% %+%                        =o%.o+#O;                              ",
"                       $=o;Oo=#o*;O+@%o>#,+           .& &O& #@.                          &o#@#$=%                              ",
"                         #O;@+O#>=, &>&.-+%              =; .o                             $#@+                                 ",
"                          ;+%.&@=   DFZZVG               H+*o=                                                                  ",
"                           +++>J                          KLP                                                                   ",
"                                                                                                                                ",
"                                                                                                                                ",
"                                                                                                                                ",
"                                                                                                                                ",
"                                                                                                                                ",
"                                                                                                                                "
};